# File generated by ImageToStl.com - Free Image and 3D model conversion tools

mtllib carrot.mtl

o obj1
v -0.8810754 2.7706847E-08 0.431453
v 0.9609337 0.3210969 2.1660964
v 1.056021 1.4773104E-07 2.0731013
v -0.9265257 -0.15347955 0.47590327
v 0.7313728 -0.45409927 2.3906069
v -1.0362525 -0.21705292 0.58321595
v -1.1459794 -0.1534796 0.69052863
v 0.4067244 3.7136488E-08 2.7081122
v -1.1914297 -2.514571E-08 0.73497903
v -1.1459794 0.1534796 0.69052863
v 0.73137265 0.4540995 2.3906069
v -1.0362525 0.21705295 0.58321595
v -0.9265257 0.15347964 0.47590327
v 0.9609338 -0.32109654 2.1660964
v 0.50181174 -0.32109666 2.615117
v 0.5018117 0.32109684 2.615117
v 0.89858127 -0.24767157 2.9157991
v 0.82523745 7.159542E-08 2.9875293
v 1.0756485 0.3502608 2.7426276
v 1.252716 0.24767184 2.569456
v 1.3260597 1.5692785E-07 2.497726
v 1.2527161 -0.24767148 2.569456
v 0.89858115 0.24767178 2.9157994
v 1.0756485 -0.35026056 2.7426276
v 1.2599031 1.4086254E-07 2.7577362
v 1.173279 -0.1211646 2.8424544
v 1.0866549 1.1129305E-07 2.9271727
v 1.1120266 0.08567651 2.9023592
v 1.173279 0.121164836 2.8424544
v 1.2345314 0.08567653 2.7825496
v 1.2345314 -0.08567624 2.7825496
v 1.1120266 -0.08567627 2.9023592
v -1.1295359 1.0826625E-08 0.25299013
v -1.1639196 0.11610863 0.28661716
v -1.2469288 -0.16420242 0.36780012
v -1.1639196 -0.11610862 0.28661716
v -1.3643217 -2.9220246E-08 0.48261023
v -1.3299382 -0.116108656 0.44898307
v -1.2469288 0.16420242 0.36780012
v -1.3299382 0.116108626 0.44898307
v -1.3527616 0.046026196 0.19375944
v -1.385667 0.06509089 0.22594082
v -1.3391317 -5.820766E-09 0.18042946
v -1.4185724 -0.046026222 0.25812232
v -1.385667 -0.0650909 0.22594082
v -1.4185724 0.046026193 0.25812232
v -1.4322023 -2.1769665E-08 0.2714523
v -1.3527616 -0.04602621 0.19375944
v -1.4203229 -8.032657E-09 0.19050527
v 1.1933556 1.2619421E-07 2.8629827
v 1.9775934 -0.17088644 3.321756
v 1.9631422 -0.21968636 3.335889
v 1.203833 1.2677629E-07 2.8736959
v 1.9395919 0.2599545 3.53835
v 1.4890571 0.19898333 3.4768167
v 1.8458996 -0.1550651 3.6659827
v 1.4552644 0.1794046 3.5098658
v 1.500133 0.1321374 3.488142
v 1.4412671 0.13213739 3.5235553
v 1.9396895 -0.17088646 3.381703
v 1.9282538 -0.23989995 3.37001
v 1.8636118 -0.21487696 3.6486602
v 1.9203887 -0.15506509 3.6211708
v 1.906373 -0.23965186 3.60684
v 1.9788082 0.23723347 3.4999967
v 1.9524453 0.18237996 3.5514927
v 1.9950521 0.18237998 3.4841099
vn 0.61646026 -4.144926E-08 -0.787386
vn 0.5433309 0.7060301 -0.454217
vn 0.7524095 6.4556154E-08 -0.6586956
vn 0.40889227 -0.70092905 -0.58438486
vn 0.038570534 -0.99847734 0.039437994
vn -0.09222148 -0.99126357 -0.094296515
vn -0.5933355 -0.7009291 0.39579204
vn -0.6752689 -2.3132621E-07 0.7375717
vn -0.8009036 -2.0724633E-08 0.5987934
vn -0.5933356 0.700929 0.3957921
vn 0.038570203 0.99847734 0.03943824
vn -0.09222167 0.9912635 -0.09429647
vn 0.40889215 0.700929 -0.5843849
vn 0.543331 -0.70602995 -0.45421708
vn -0.4661901 -0.7060301 0.53309315
vn -0.4661903 0.70603 0.53309315
vn -0.05227764 -0.59707123 0.800483
vn -0.22909014 -4.498089E-07 0.9734052
vn 0.37458506 0.8443861 0.3830119
vn 0.80144775 0.59707123 -0.034458827
vn 0.9782602 1.5388198E-07 -0.20738135
vn 0.801448 -0.597071 -0.034458872
vn -0.052277725 0.59707105 0.80048317
vn 0.37458494 -0.8443861 0.3830119
vn 0.9992261 0.013622468 0.03690103
vn 0.484833 -0.71196723 0.50797606
vn 0.004781135 -0.032925818 0.99944645
vn 0.070282765 0.5468286 0.8342893
vn 0.5035713 0.6972387 0.5101709
vn 0.8512729 0.50970304 0.124649204
vn 0.84214437 -0.5290392 0.10445297
vn 0.11904361 -0.50100756 0.8572164
vn 0.46938792 0 -0.88299197
vn 0.2698393 0.67384785 -0.6878341
vn -0.21191305 -0.952965 -0.21668077
vn 0.2698394 -0.6738479 -0.687834
vn -0.89321446 1.5976855E-08 0.44963092
vn -0.6936659 -0.67384815 0.25447264
vn -0.21191323 0.9529649 -0.21668072
vn -0.69366604 0.673848 0.25447264
vn -0.027801065 0.5593741 -0.828449
vn -0.42771307 0.79107463 -0.43733576
vn 0.13784815 -5.3506852E-09 -0.9904534
vn -0.8276253 -0.5593745 -0.046222292
vn -0.42771295 -0.79107463 -0.43733582
vn -0.82762533 0.5593744 -0.04622207
vn -0.9932746 5.8857573E-08 0.11578214
vn -0.027801054 -0.5593741 -0.828449
vn -0.69919777 2.3406571E-08 -0.71492827
vn 0.69919825 -2.5198377E-09 0.7149277
vn 0.90177906 0.3761631 -0.21282838
vn 0.77526826 -0.62376153 -0.09940113
vn 0.68887603 0.13459478 0.71227396
vn 0.012868483 0.77850574 0.6275055
vn 0.57725835 0.8058346 0.13192204
vn -0.16315058 0.40219384 0.90090066
vn -0.15312342 0.6247528 0.7656613
vn 0.84588444 -0.44906923 0.28777823
vn -0.27981934 -0.36983648 0.8859583
vn 0.21735632 0.45017064 0.8660847
vn 0.06554294 -0.7935169 0.60500824
vn -0.05610968 -0.61374944 0.7875045
vn 0.87109995 0.4639039 0.16117698
vn 0.64159554 -0.7669709 0.010526584
vn 0.7821083 0.62029666 -0.059485704
vn 0.16497894 -0.45398355 0.87560314
vn 0.9080824 -0.38638878 -0.16152363
vt 0.27363855 0.14442258 
vt 0.26920807 0.8014821 
vt 0.18051498 0.7984639 
vt 0.2303966 0.13756816 
vt 0.0046119434 0.75959975 
vt 0.18820128 0.12590283 
vt 0.49184686 0.13821891 
vt 0.5406296 0.80082613 
vt 0.4483993 0.1448724 
vt 0.4048369 0.15029827 
vt 0.36036825 0.81231946 
vt 0.3609444 0.15079856 
vt 0.31711006 0.15006891 
vt 0.09189072 0.7749934 
vt 0.7177395 0.76414275 
vt 0.6269088 0.7790614 
vt 0.44872746 0.8028696 
vt 0.6542968 0.89673495 
vt 0.5907307 0.9235939 
vt 0.39273244 0.9407237 
vt 0.2628916 0.92181253 
vt 0.12877308 0.9209686 
vt 0.0688094 0.8930943 
vt 0.52486336 0.9332303 
vt 0.4593455 0.9230588 
vt 0.19455205 0.9299601 
vt 9.4315765E-05 0.89158934 
vt 0.23248759 0.99501926 
vt 0.028503066 0.9612283 
vt 0.6453724 0.9757136 
vt 0.4635934 0.9903942 
vt 0.43947083 0.9999057 
vt 0.32625365 0.9410369 
vt 0.25767115 0.9889891 
vt 0.07630644 0.9703509 
vt 0.05424862 0.95878917 
vt 0.7206823 0.89762825 
vt 0.66795474 0.96289945 
vt 0.48805827 0.9953959 
vt 0.29060552 0.06560426 
vt 0.32238212 0.07189765 
vt 0.216006 0.050340027 
vt 0.2465467 0.061008897 
vt 0.4428186 0.064225584 
vt 0.47518027 0.06144859 
vt 0.3667094 0.07027299 
vt 0.39909765 0.07205478 
vt 0.3551462 0.07045623 
vt 0.27914602 0.06416761 
vt 0.5342762 0.1267282 
vt 0.5063415 0.05094591 
vt 0.4313798 0.06602935 
vt 0.32644093 0.014549146 
vt 0.33982888 0.013245059 
vt 0.27200446 0.0054532895 
vt 0.4631373 0.005074716 
vt 0.47567132 9.4315765E-05 
vt 0.39507666 0.0146264965 
vt 0.40816733 0.011455446 
vt 0.3135932 0.011538542 
vt 0.25858375 0.0048696706 
vt 0.44992337 0.0057484424 
vt 0.8311241 0.55135727 
vt 0.9192735 0.58787 
vt 0.86763686 0.6395067 
vt 0.86763686 0.46320793 
vt 0.9192735 0.51484454 
vt 0.7946114 0.6395067 
vt 0.74297476 0.51484454 
vt 0.7946114 0.46320793 
vt 0.87417525 0.049150527 
vt 0.81135195 0.20081866 
vt 0.74852896 0.049150452 
vt 0.9630203 0.26364177 
vt 0.9630203 0.13799572 
vt 0.74852896 0.35248685 
vt 0.87417495 0.35248685 
vt 0.6596838 0.13799563 
vt 0.6596838 0.2636416 
vt 0.2811626 0.9973579 
vt 0.69291234 0.96442634 
vt 0.24630098 9.51597E-05 
vt 0.38191625 0.0134439375 
vt 0.74297476 0.58787 
vt 0.62478614 0.0044627576 
vt 0.65548825 0.5326396 
vt 0.62478495 0.53509456 
vt 0.4986982 0.031192664 
vt 0.36343127 0.6133872 
vt 0.4275969 0.016472869 
vt 0.874146 0.01516398 
vt 0.89903045 0.41201413 
vt 0.8201472 0.012297397 
vt 0.12420544 0.009858188 
vt 0.049617484 0.6154564 
vt 0.071008675 0.00015289878 
vt 0.9717187 0.43539697 
vt 0.99816954 0.40531376 
vt 0.99984705 0.4453366 
vt 0.99984705 0.00015289878 
vt 0.9582612 0.408772 
vt 0.92750925 0.00642078 
vt 0.7508739 0.034052026 
vt 0.86081284 0.42401588 
vt 0.92882127 0.41359547 
vt 0.66280085 0.56255925 
vt 0.69642985 0.5384869 
vt 0.6887653 0.5791272 
vt 0.7505682 0.010417684 
vt 0.6786887 0.000153182 
vt 0.49900404 0.010417259 
vt 0.59408224 0.5326396 
vt 0.55314064 0.53848636 
vt 0.5708836 0.00015289878 
vt 0.04355235 0.6527159 
vt 0.00015289878 0.6265282 
vt 0.00015289878 0.016012358 
vt 0.17788005 0.016424581 
vt 0.086755276 0.6222321 
vt 0.24893361 0.03137293 
vt 0.12422627 0.6268163 
vt 0.287766 0.6367816 
vt 0.24923997 0.61076635 
vt 0.2950631 0.6029385 
vt 0.32899693 0.6098045 
vt 0.37381244 0.010876638 
vt 0.24923941 0.012379671 
vt 0.32081154 0.00015289878 
vt 0.40895224 0.622811 
vt 0.013416211 0.6754503 
vt 0.17382947 0.6372517 
vt 0.2591009 0.6561955 
usemtl mat0
f 1/1/1 2/2/2 3/3/3
f 4/4/4 5/5/5 6/6/6
f 7/7/7 8/8/8 9/9/9
f 10/10/10 11/11/11 12/12/12
f 12/12/12 2/2/2 13/13/13
f 1/1/1 14/14/14 4/4/4
f 7/7/7 5/15/5 15/16/15
f 9/9/9 16/17/16 10/10/10
f 8/8/8 17/18/17 18/19/18
f 16/17/16 19/20/19 11/11/11
f 11/11/11 20/21/20 2/2/2
f 14/14/14 21/22/21 22/23/22
f 5/15/5 17/18/17 15/16/15
f 16/17/16 18/24/18 23/25/23
f 2/2/2 21/26/21 3/3/3
f 14/14/14 24/27/24 5/5/5
f 20/21/20 25/28/25 21/26/21
f 22/23/22 26/29/26 24/27/24
f 17/18/17 27/30/27 18/19/18
f 19/20/19 28/31/28 29/32/29
f 19/33/19 30/34/30 20/21/20
f 22/23/22 25/35/25 31/36/31
f 24/37/24 32/38/32 17/18/17
f 23/25/23 27/39/27 28/31/28
f 13/13/13 33/40/33 34/41/34
f 4/4/4 35/42/35 36/43/36
f 7/7/7 37/44/37 38/45/38
f 10/10/10 39/46/39 40/47/40
f 13/13/13 39/48/39 12/12/12
f 4/4/4 33/49/33 1/1/1
f 6/50/6 38/45/38 35/51/35
f 10/10/10 37/52/37 9/9/9
f 39/48/39 41/53/41 42/54/42
f 36/43/36 43/55/43 33/49/33
f 35/51/35 44/56/44 45/57/45
f 37/52/37 46/58/46 47/59/47
f 34/41/34 43/60/43 41/53/41
f 35/42/35 48/61/48 36/43/36
f 38/45/38 47/62/47 44/56/44
f 39/46/39 46/58/46 40/47/40
f 49/63/49 48/64/48 45/65/45
f 49/63/49 41/66/41 43/67/43
f 44/68/44 49/63/49 45/65/45
f 49/63/49 46/69/46 42/70/42
f 31/71/31 50/72/50 26/73/26
f 30/74/30 50/72/50 25/75/25
f 28/76/28 50/72/50 29/77/29
f 32/78/32 50/72/50 27/79/27
f 1/1/1 13/13/13 2/2/2
f 4/4/4 14/14/14 5/5/5
f 7/7/7 15/16/15 8/8/8
f 10/10/10 16/17/16 11/11/11
f 12/12/12 11/11/11 2/2/2
f 1/1/1 3/3/3 14/14/14
f 7/7/7 6/50/6 5/15/5
f 9/9/9 8/8/8 16/17/16
f 8/8/8 15/16/15 17/18/17
f 16/17/16 23/25/23 19/20/19
f 11/11/11 19/33/19 20/21/20
f 14/14/14 3/3/3 21/22/21
f 5/15/5 24/37/24 17/18/17
f 16/17/16 8/8/8 18/24/18
f 2/2/2 20/21/20 21/26/21
f 14/14/14 22/23/22 24/27/24
f 20/21/20 30/34/30 25/28/25
f 22/23/22 31/36/31 26/29/26
f 17/18/17 32/38/32 27/30/27
f 19/20/19 23/25/23 28/31/28
f 19/33/19 29/80/29 30/34/30
f 22/23/22 21/22/21 25/35/25
f 24/37/24 26/81/26 32/38/32
f 23/25/23 18/24/18 27/39/27
f 13/13/13 1/1/1 33/40/33
f 4/4/4 6/6/6 35/42/35
f 7/7/7 9/9/9 37/44/37
f 10/10/10 12/12/12 39/46/39
f 13/13/13 34/41/34 39/48/39
f 4/4/4 36/43/36 33/49/33
f 6/50/6 7/7/7 38/45/38
f 10/10/10 40/47/40 37/52/37
f 39/48/39 34/41/34 41/53/41
f 36/43/36 48/61/48 43/55/43
f 35/51/35 38/45/38 44/56/44
f 37/52/37 40/47/40 46/58/46
f 34/41/34 33/40/33 43/60/43
f 35/42/35 45/82/45 48/61/48
f 38/45/38 37/44/37 47/62/47
f 39/46/39 42/83/42 46/58/46
f 49/63/49 43/67/43 48/64/48
f 49/63/49 42/70/42 41/66/41
f 44/68/44 47/84/47 49/63/49
f 49/63/49 47/84/47 46/69/46
f 31/71/31 25/75/25 50/72/50
f 30/74/30 29/77/29 50/72/50
f 28/76/28 27/79/27 50/72/50
f 32/78/32 26/73/26 50/72/50
usemtl mat1
f 31/85/31 51/86/51 52/87/52
f 53/88/53 54/89/54 29/90/29
f 28/91/28 55/92/55 29/93/29
f 32/94/32 56/95/56 27/96/27
f 57/97/57 58/98/58 55/99/55
f 53/100/53 59/101/59 27/102/27
f 53/103/53 55/92/55 58/104/58
f 28/91/28 59/101/59 57/105/57
f 52/106/52 60/107/60 61/108/61
f 53/109/53 51/86/51 25/110/25
f 53/111/53 61/112/61 60/113/60
f 31/85/31 61/112/61 26/114/26
f 62/115/62 63/116/63 56/95/56
f 53/117/53 56/95/56 63/116/63
f 26/118/26 62/119/62 32/94/32
f 53/120/53 64/121/64 26/118/26
f 65/122/65 66/123/66 67/124/67
f 29/90/29 65/125/65 30/126/30
f 53/127/53 67/124/67 66/123/66
f 30/126/30 67/124/67 25/128/25
f 31/85/31 25/110/25 51/86/51
f 53/88/53 66/129/66 54/89/54
f 28/91/28 57/105/57 55/92/55
f 32/94/32 62/119/62 56/95/56
f 57/97/57 59/101/59 58/98/58
f 53/100/53 58/98/58 59/101/59
f 53/103/53 29/93/29 55/92/55
f 28/91/28 27/102/27 59/101/59
f 52/106/52 51/86/51 60/107/60
f 53/109/53 60/107/60 51/86/51
f 53/111/53 26/114/26 61/112/61
f 31/85/31 52/87/52 61/112/61
f 62/115/62 64/130/64 63/116/63
f 53/117/53 27/96/27 56/95/56
f 26/118/26 64/121/64 62/119/62
f 53/120/53 63/131/63 64/121/64
f 65/122/65 54/132/54 66/123/66
f 29/90/29 54/89/54 65/125/65
f 53/127/53 25/128/25 67/124/67
f 30/126/30 65/125/65 67/124/67
# Vertices: 67, normals: 67, texture coordinates: 132, faces: 136

